HIERARCHY
ROOT idle
{
	OFFSET 0.000000 0.000000 0.000000
	CHANNELS 6 Xposition Yposition Zposition Xrotation Yrotation Zrotation
	JOINT Spine_01
	{
		OFFSET 0.000000 138.184219 -44.816219
		CHANNELS 3 Xrotation Yrotation Zrotation
		JOINT Spine_02
		{
			OFFSET -0.000001 -4.180252 28.050501
			CHANNELS 3 Xrotation Yrotation Zrotation
			JOINT Spine_03
			{
				OFFSET 0.000225 -2.921967 35.446671
				CHANNELS 3 Xrotation Yrotation Zrotation
				JOINT Spine_04
				{
					OFFSET -0.003229 1.217178 39.278065
					CHANNELS 3 Xrotation Yrotation Zrotation
					JOINT Neck_Base
					{
						OFFSET -0.002599 3.589127 29.437267
						CHANNELS 3 Xrotation Yrotation Zrotation
						JOINT Neck_01
						{
							OFFSET -0.043851 17.877197 9.460396
							CHANNELS 3 Xrotation Yrotation Zrotation
							JOINT Neck_02
							{
								OFFSET -0.090427 15.300186 15.305344
								CHANNELS 3 Xrotation Yrotation Zrotation
								JOINT Head
								{
									OFFSET 0.125823 15.540573 15.523781
									CHANNELS 3 Xrotation Yrotation Zrotation
									JOINT L_Ear
									{
										OFFSET 8.540829 16.285645 9.196762
										CHANNELS 3 Xrotation Yrotation Zrotation
										End Site
										{
											OFFSET 6.240585 6.341034 -14.343224
										}
									}
									JOINT R_Ear
									{
										OFFSET -7.277507 17.143448 8.711563
										CHANNELS 3 Xrotation Yrotation Zrotation
										End Site
										{
											OFFSET 4.631270 -6.930466 14.676575
										}
									}
									JOINT Jaw
									{
										OFFSET -0.485492 -4.110336 8.566040
										CHANNELS 3 Xrotation Yrotation Zrotation
										End Site
										{
											OFFSET 0.973268 16.705750 -2.202789
										}
									}
								}
							}
						}
					}
					JOINT R_Scapula
					{
						OFFSET -6.758663 17.541138 7.673435
						CHANNELS 3 Xrotation Yrotation Zrotation
						JOINT R_Shoulder
						{
							OFFSET -4.010945 -35.521355 22.007339
							CHANNELS 3 Xrotation Yrotation Zrotation
							JOINT R_Front_UpperLeg
							{
								OFFSET -3.174627 -27.349258 -18.725433
								CHANNELS 3 Xrotation Yrotation Zrotation
								JOINT R_Front_LowerLeg
								{
									OFFSET 1.580475 -39.718163 2.866249
									CHANNELS 3 Xrotation Yrotation Zrotation
									JOINT R_Front_Ankle
									{
										OFFSET 1.215116 -30.536602 2.203590
										CHANNELS 3 Xrotation Yrotation Zrotation
										JOINT R_Front_Hoof
										{
											OFFSET 0.000596 -9.176675 4.106583
											CHANNELS 3 Xrotation Yrotation Zrotation
											End Site
											{
												OFFSET -0.000577 -0.001087 -10.053635
											}
										}
									}
								}
							}
						}
					}
					JOINT L_Scapula
					{
						OFFSET 6.753941 17.542343 7.674480
						CHANNELS 3 Xrotation Yrotation Zrotation
						JOINT L_Shoulder
						{
							OFFSET 2.964276 -35.661980 21.945183
							CHANNELS 3 Xrotation Yrotation Zrotation
							JOINT L_Front_UpperLeg
							{
								OFFSET 1.995764 -26.938873 -19.468185
								CHANNELS 3 Xrotation Yrotation Zrotation
								JOINT L_Front_LowerLeg
								{
									OFFSET -0.865696 -39.609680 -4.306599
									CHANNELS 3 Xrotation Yrotation Zrotation
									JOINT L_Front_Ankle
									{
										OFFSET -0.665508 -30.452812 -3.315022
										CHANNELS 3 Xrotation Yrotation Zrotation
										JOINT L_Front_Hoof
										{
											OFFSET 0.003840 -9.222033 4.003555
											CHANNELS 3 Xrotation Yrotation Zrotation
											End Site
											{
												OFFSET 0.010533 -0.111383 10.052948
											}
										}
									}
								}
							}
						}
					}
				}
			}
		}
		JOINT L_Hip
		{
			OFFSET 14.887411 -7.729385 -12.131313
			CHANNELS 3 Xrotation Yrotation Zrotation
			JOINT L_Back_UpperLeg
			{
				OFFSET 0.000000 -34.478600 8.440952
				CHANNELS 3 Xrotation Yrotation Zrotation
				JOINT L_Back_LowerLeg
				{
					OFFSET -3.196044 -42.364517 -14.576759
					CHANNELS 3 Xrotation Yrotation Zrotation
					JOINT L_Back_Ankle
					{
						OFFSET 1.660011 -33.756645 12.929783
						CHANNELS 3 Xrotation Yrotation Zrotation
						JOINT L_Back_Hoof
						{
							OFFSET 0.584125 -11.035231 3.766605
							CHANNELS 3 Xrotation Yrotation Zrotation
							End Site
							{
								OFFSET 1.787004 -0.000511 11.537395
							}
						}
					}
				}
			}
		}
		JOINT R_Hip
		{
			OFFSET -14.887404 -7.729263 -12.131302
			CHANNELS 3 Xrotation Yrotation Zrotation
			JOINT R_Back_UpperLeg
			{
				OFFSET -0.000002 -35.225861 4.378201
				CHANNELS 3 Xrotation Yrotation Zrotation
				JOINT R_Back_LowerLeg
				{
					OFFSET 3.960892 -39.350449 -21.290855
					CHANNELS 3 Xrotation Yrotation Zrotation
					JOINT R_Back_Ankle
					{
						OFFSET -0.901290 -36.023094 3.312836
						CHANNELS 3 Xrotation Yrotation Zrotation
						JOINT R_Back_Hoof
						{
							OFFSET -0.767009 -11.035016 3.734154
							CHANNELS 3 Xrotation Yrotation Zrotation
							End Site
							{
								OFFSET 2.350103 -0.000015 -11.435944
							}
						}
					}
				}
			}
		}
		JOINT Tail_01
		{
			OFFSET 0.000002 9.427841 -23.815624
			CHANNELS 3 Xrotation Yrotation Zrotation
			JOINT Tail_02
			{
				OFFSET -2.436646 -10.035355 -19.528259
				CHANNELS 3 Xrotation Yrotation Zrotation
				JOINT Tail_03
				{
					OFFSET -6.616276 -21.546600 -6.098259
					CHANNELS 3 Xrotation Yrotation Zrotation
					JOINT Tail_04
					{
						OFFSET -9.807926 -21.052444 0.112030
						CHANNELS 3 Xrotation Yrotation Zrotation
						JOINT Tail_05
						{
							OFFSET -10.701092 -20.679657 1.963898
							CHANNELS 3 Xrotation Yrotation Zrotation
							End Site
							{
								OFFSET -2.487253 -0.917824 -23.216141
							}
						}
					}
				}
			}
		}
	}
}
MOTION
Frames: 4
Frame Time: 0.033333
0.000000 0.000000 0.000000 0.000006 0.000000 -0.000000 -0.000017 -0.000000 -0.000000 -0.000042 -0.000000 -0.000000 0.000034 0.000000 0.000000 -0.000014 -0.000000 -0.000000 0.000037 -0.000000 0.000000 -0.000027 -0.000001 0.000000 -0.000021 -0.000001 -0.000000 -0.000333 -0.000604 -0.000355 0.000337 0.000611 0.000362 0.000342 0.000601 0.000350 0.000321 0.000609 0.000739 0.000005 0.000001 0.000001 0.000011 0.000000 0.000004 -0.000022 0.000003 -0.000005 0.000007 0.000001 0.000011 -0.000032 -0.000003 -0.000001 0.000033 -0.000073 0.000033 0.000006 -0.000000 0.000000 -0.000001 0.000078 -0.000004 -0.000000 -0.000000 -0.000001 -0.000021 0.000001 -0.000001 0.000027 -0.000000 0.000001 -0.000029 0.000101 -0.000044 -0.000007 0.000007 -0.000061 0.000005 -0.000001 0.000003 0.000017 0.000093 0.000026 0.000024 0.000002 -0.000004 -0.000048 0.000099 -0.000031 -0.000009 0.000009 -0.000064 -0.000000 -0.000005 -0.000006 -0.000007 0.000000 0.000002 -0.000001 -0.000003 -0.000011 0.000017 -0.000056 0.000034 -0.000030 0.000013 0.000007 0.000022 -0.000004 0.000000 -0.000020 0.000004 0.000003 -0.000023 0.000013 0.000010 0.000064 0.000073 -0.000018 
0.000000 0.000000 0.000000 0.000006 0.000000 -0.000000 -0.004042 -0.000000 -0.000000 0.004265 0.009369 0.000677 0.000034 0.000000 -0.000006 -0.000013 -0.008072 0.000503 -0.120806 0.057821 -0.019230 0.088489 0.263553 0.219446 0.167709 0.181619 0.241170 0.181148 -0.096328 0.017462 0.297305 -0.232352 0.026772 0.239667 0.273892 0.053721 0.000322 0.000609 0.000739 0.000005 -0.000000 -0.000013 0.000015 0.000000 0.000003 0.000437 -0.015301 -0.023146 -0.000095 0.000096 0.000006 0.000172 0.011260 0.025165 0.000029 -0.000073 0.000033 0.000012 0.000019 -0.000019 0.000003 0.000078 -0.000004 -0.000622 -0.016716 -0.026270 -0.000021 0.000000 -0.000001 -0.000132 0.016802 0.026327 -0.000028 0.000101 -0.000044 -0.000007 0.000007 -0.000061 0.005065 0.004396 -0.012781 0.000017 0.000092 0.000026 -0.003687 -0.010293 0.011122 -0.000048 0.000097 -0.000030 -0.000009 0.000009 -0.000064 0.006282 0.005885 -0.010891 -0.000001 -0.000001 0.000002 -0.001800 -0.009286 0.009048 0.000020 -0.000055 0.000034 0.150390 0.203390 -0.489363 0.266627 0.176148 -1.456641 0.218333 0.006480 -2.861050 -0.012301 -0.312590 -3.526161 0.000063 0.000074 -0.000016 
0.000000 0.000000 0.000000 0.000006 0.000000 -0.000000 -0.015830 -0.000000 -0.000000 0.016751 0.018438 0.001338 0.004378 -0.000017 -0.000593 -0.005060 -0.015881 0.000990 -0.232938 0.109588 -0.036268 0.169582 0.497561 0.414726 0.322160 0.340493 0.455981 0.348756 -0.185381 0.034711 0.606053 -0.455386 0.063440 0.494754 0.532772 0.095104 0.000321 0.000609 0.000739 0.000005 -0.000001 -0.000027 0.000015 0.000000 0.000004 0.000872 -0.029669 -0.044878 -0.000094 0.000096 0.000006 0.000365 0.021834 0.048796 0.000030 -0.000073 0.000033 0.000010 0.000037 -0.000037 -0.000004 0.000078 -0.000004 -0.001185 -0.032405 -0.050923 -0.000021 0.000001 -0.000001 -0.000270 0.032576 0.051039 -0.000031 0.000101 -0.000044 -0.000009 0.000007 -0.000061 0.021370 0.008275 -0.024038 0.004139 0.000027 -0.000681 -0.012687 -0.018830 0.021469 -0.000048 0.000097 -0.000031 -0.000010 0.000009 -0.000064 0.021574 0.015051 -0.019517 0.005914 -0.000042 0.001176 -0.011235 -0.018409 0.016497 0.000018 -0.000056 0.000035 0.252934 0.259157 -0.673499 0.512889 0.286202 -2.600935 0.461716 -0.018108 -5.480833 0.035646 -0.671995 -7.057817 0.000063 0.000075 -0.000020 
0.000000 0.000000 0.000000 0.000006 0.000000 -0.000000 -0.034784 -0.000000 -0.000000 0.036850 0.027283 0.001981 0.011375 -0.000023 -0.001079 -0.013189 -0.023506 0.001470 -0.335601 0.155016 -0.051091 0.243044 0.704509 0.587295 0.462752 0.479630 0.646111 0.501770 -0.266686 0.050709 0.925723 -0.668831 0.110613 0.766108 0.776517 0.124003 0.000322 0.000609 0.000739 0.000005 -0.000002 -0.000041 0.002870 -0.000326 -0.000003 0.001248 -0.043235 -0.065391 -0.000095 0.000096 0.000006 0.000539 0.035542 0.069449 0.000027 -0.000073 0.000033 0.000008 0.000056 -0.000057 -0.000006 0.000077 -0.000005 -0.000772 -0.047239 -0.074225 -0.000021 0.000001 -0.000001 -0.000397 0.047422 0.074404 -0.000028 0.000101 -0.000044 -0.000005 0.000007 -0.000061 0.048120 0.011483 -0.033945 0.010030 -0.000071 -0.001691 -0.026627 -0.025734 0.031076 -0.000047 0.000097 -0.000030 -0.000009 0.000009 -0.000064 0.045591 0.024121 -0.027718 0.017227 -0.000116 0.003423 -0.027587 -0.027395 0.022472 0.000017 -0.000056 0.000034 0.296238 0.131738 -0.458809 0.724837 0.322327 -3.353394 0.718447 -0.072548 -7.736792 0.135650 -1.055622 -10.450030 0.000063 0.000075 -0.000023 
